<mxfile host="app.diagrams.net" modified="2023-08-17T18:59:18.808Z" agent="Mozilla/5.0 (Windows NT 10.0; Win64; x64) AppleWebKit/537.36 (KHTML, like Gecko) Chrome/115.0.0.0 Safari/537.36 Edg/115.0.1901.203" etag="spWyWipEwVAcc2ibnjjq" version="21.6.8" type="github" pages="2">
  <diagram name="Page-1" id="dqf3qpE8tVFYWtTK8mvS">
    <mxGraphModel dx="1565" dy="626" grid="1" gridSize="10" guides="1" tooltips="1" connect="1" arrows="1" fold="1" page="1" pageScale="1" pageWidth="850" pageHeight="1100" math="0" shadow="0">
      <root>
        <mxCell id="0" />
        <mxCell id="1" parent="0" />
        <mxCell id="Ns2lG5BNi6f9O59tl7P_-2" value="" style="rounded=0;whiteSpace=wrap;html=1;" parent="1" vertex="1">
          <mxGeometry x="140" y="120" width="710" height="610" as="geometry" />
        </mxCell>
        <mxCell id="Ns2lG5BNi6f9O59tl7P_-1" value="Actor" style="shape=umlActor;verticalLabelPosition=bottom;verticalAlign=top;html=1;outlineConnect=0;" parent="1" vertex="1">
          <mxGeometry x="260" y="230" width="310" height="460" as="geometry" />
        </mxCell>
        <mxCell id="Ns2lG5BNi6f9O59tl7P_-3" value="Vertical Container" style="swimlane;whiteSpace=wrap;html=1;" parent="1" vertex="1">
          <mxGeometry x="600" y="120" width="250" height="250" as="geometry" />
        </mxCell>
        <mxCell id="Ns2lG5BNi6f9O59tl7P_-5" value="" style="html=1;shadow=0;dashed=0;shape=mxgraph.bootstrap.rrect;rSize=5;strokeColor=none;html=1;whiteSpace=wrap;fillColor=#6C767D;fontColor=#ffffff;sketch=0;" parent="1" vertex="1">
          <mxGeometry x="150" y="130" width="180" height="30" as="geometry" />
        </mxCell>
        <mxCell id="Ns2lG5BNi6f9O59tl7P_-6" value="Home" style="strokeColor=inherit;fillColor=inherit;gradientColor=inherit;fontColor=inherit;html=1;shadow=0;dashed=0;shape=mxgraph.bootstrap.leftButton;rSize=5;perimeter=none;whiteSpace=wrap;resizeHeight=1;sketch=0;" parent="Ns2lG5BNi6f9O59tl7P_-5" vertex="1">
          <mxGeometry width="60" height="30" relative="1" as="geometry" />
        </mxCell>
        <mxCell id="Ns2lG5BNi6f9O59tl7P_-7" value="Feed" style="strokeColor=inherit;fillColor=inherit;gradientColor=inherit;fontColor=inherit;html=1;shadow=0;dashed=0;perimeter=none;whiteSpace=wrap;resizeHeight=1;sketch=0;" parent="Ns2lG5BNi6f9O59tl7P_-5" vertex="1">
          <mxGeometry width="60" height="30" relative="1" as="geometry">
            <mxPoint x="60" as="offset" />
          </mxGeometry>
        </mxCell>
        <mxCell id="Ns2lG5BNi6f9O59tl7P_-8" value="Messenger" style="strokeColor=inherit;fillColor=inherit;gradientColor=inherit;fontColor=inherit;html=1;shadow=0;dashed=0;shape=mxgraph.bootstrap.rightButton;rSize=5;perimeter=none;whiteSpace=wrap;resizeHeight=1;sketch=0;" parent="Ns2lG5BNi6f9O59tl7P_-5" vertex="1">
          <mxGeometry x="1" width="79" height="30" relative="1" as="geometry">
            <mxPoint x="-60" as="offset" />
          </mxGeometry>
        </mxCell>
      </root>
    </mxGraphModel>
  </diagram>
  <diagram id="rmN0FbChLDWqn9sg0333" name="Page-2">
    <mxGraphModel dx="1760" dy="826" grid="1" gridSize="10" guides="1" tooltips="1" connect="1" arrows="1" fold="1" page="1" pageScale="1" pageWidth="850" pageHeight="1100" math="0" shadow="0">
      <root>
        <mxCell id="0" />
        <mxCell id="1" parent="0" />
        <mxCell id="1cO4MJASLVhL4EE68Gqv-121" value="" style="rounded=1;whiteSpace=wrap;html=1;strokeColor=none;fillColor=#ffe6cc;" vertex="1" parent="1">
          <mxGeometry x="500" y="82" width="500" height="300" as="geometry" />
        </mxCell>
        <mxCell id="1cO4MJASLVhL4EE68Gqv-129" value="" style="rounded=1;whiteSpace=wrap;html=1;strokeColor=none;fillColor=#f5f5f5;fontColor=#333333;" vertex="1" parent="1">
          <mxGeometry x="500" y="420" width="500" height="300" as="geometry" />
        </mxCell>
        <mxCell id="1cO4MJASLVhL4EE68Gqv-120" value="" style="rounded=1;whiteSpace=wrap;html=1;strokeColor=none;fillColor=#e1d5e7;" vertex="1" parent="1">
          <mxGeometry x="-10" y="82" width="500" height="638" as="geometry" />
        </mxCell>
        <mxCell id="1cO4MJASLVhL4EE68Gqv-2" value="User" style="swimlane;fontStyle=0;childLayout=stackLayout;horizontal=1;startSize=26;fillColor=#6a00ff;horizontalStack=0;resizeParent=1;resizeParentMax=0;resizeLast=0;collapsible=1;marginBottom=0;whiteSpace=wrap;html=1;strokeColor=#3700CC;fontColor=#ffffff;" vertex="1" parent="1">
          <mxGeometry x="430" y="250" width="140" height="130" as="geometry" />
        </mxCell>
        <mxCell id="1cO4MJASLVhL4EE68Gqv-3" value="email : string&lt;span style=&quot;white-space: pre;&quot;&gt;&#x9;&lt;/span&gt;" style="text;strokeColor=#b85450;fillColor=#f8cecc;align=left;verticalAlign=top;spacingLeft=4;spacingRight=4;overflow=hidden;rotatable=0;points=[[0,0.5],[1,0.5]];portConstraint=eastwest;whiteSpace=wrap;html=1;" vertex="1" parent="1cO4MJASLVhL4EE68Gqv-2">
          <mxGeometry y="26" width="140" height="26" as="geometry" />
        </mxCell>
        <mxCell id="1cO4MJASLVhL4EE68Gqv-4" value="password: string" style="text;strokeColor=#b85450;fillColor=#f8cecc;align=left;verticalAlign=top;spacingLeft=4;spacingRight=4;overflow=hidden;rotatable=0;points=[[0,0.5],[1,0.5]];portConstraint=eastwest;whiteSpace=wrap;html=1;" vertex="1" parent="1cO4MJASLVhL4EE68Gqv-2">
          <mxGeometry y="52" width="140" height="26" as="geometry" />
        </mxCell>
        <mxCell id="1cO4MJASLVhL4EE68Gqv-5" value="Status: string" style="text;strokeColor=none;fillColor=none;align=left;verticalAlign=top;spacingLeft=4;spacingRight=4;overflow=hidden;rotatable=0;points=[[0,0.5],[1,0.5]];portConstraint=eastwest;whiteSpace=wrap;html=1;" vertex="1" parent="1cO4MJASLVhL4EE68Gqv-2">
          <mxGeometry y="78" width="140" height="26" as="geometry" />
        </mxCell>
        <mxCell id="1cO4MJASLVhL4EE68Gqv-16" value="tel: number" style="text;align=left;verticalAlign=top;spacingLeft=4;spacingRight=4;overflow=hidden;rotatable=0;points=[[0,0.5],[1,0.5]];portConstraint=eastwest;whiteSpace=wrap;html=1;fillColor=#f8cecc;strokeColor=#b85450;" vertex="1" parent="1cO4MJASLVhL4EE68Gqv-2">
          <mxGeometry y="104" width="140" height="26" as="geometry" />
        </mxCell>
        <mxCell id="1cO4MJASLVhL4EE68Gqv-21" value="User Admin" style="swimlane;fontStyle=0;childLayout=stackLayout;horizontal=1;startSize=26;fillColor=#6a00ff;horizontalStack=0;resizeParent=1;resizeParentMax=0;resizeLast=0;collapsible=1;marginBottom=0;whiteSpace=wrap;html=1;strokeColor=#3700CC;fontColor=#ffffff;" vertex="1" parent="1">
          <mxGeometry x="425" y="485" width="140" height="130" as="geometry" />
        </mxCell>
        <mxCell id="1cO4MJASLVhL4EE68Gqv-22" value="email : string&lt;span style=&quot;white-space: pre;&quot;&gt;&#x9;&lt;/span&gt;" style="text;strokeColor=#b85450;fillColor=#f8cecc;align=left;verticalAlign=top;spacingLeft=4;spacingRight=4;overflow=hidden;rotatable=0;points=[[0,0.5],[1,0.5]];portConstraint=eastwest;whiteSpace=wrap;html=1;" vertex="1" parent="1cO4MJASLVhL4EE68Gqv-21">
          <mxGeometry y="26" width="140" height="26" as="geometry" />
        </mxCell>
        <mxCell id="1cO4MJASLVhL4EE68Gqv-23" value="password: string" style="text;strokeColor=#b85450;fillColor=#f8cecc;align=left;verticalAlign=top;spacingLeft=4;spacingRight=4;overflow=hidden;rotatable=0;points=[[0,0.5],[1,0.5]];portConstraint=eastwest;whiteSpace=wrap;html=1;" vertex="1" parent="1cO4MJASLVhL4EE68Gqv-21">
          <mxGeometry y="52" width="140" height="26" as="geometry" />
        </mxCell>
        <mxCell id="1cO4MJASLVhL4EE68Gqv-24" value="Status: string" style="text;strokeColor=none;fillColor=none;align=left;verticalAlign=top;spacingLeft=4;spacingRight=4;overflow=hidden;rotatable=0;points=[[0,0.5],[1,0.5]];portConstraint=eastwest;whiteSpace=wrap;html=1;" vertex="1" parent="1cO4MJASLVhL4EE68Gqv-21">
          <mxGeometry y="78" width="140" height="26" as="geometry" />
        </mxCell>
        <mxCell id="1cO4MJASLVhL4EE68Gqv-26" value="tel: number" style="text;align=left;verticalAlign=top;spacingLeft=4;spacingRight=4;overflow=hidden;rotatable=0;points=[[0,0.5],[1,0.5]];portConstraint=eastwest;whiteSpace=wrap;html=1;fillColor=#f8cecc;strokeColor=#b85450;" vertex="1" parent="1cO4MJASLVhL4EE68Gqv-21">
          <mxGeometry y="104" width="140" height="26" as="geometry" />
        </mxCell>
        <mxCell id="1cO4MJASLVhL4EE68Gqv-27" value="TotalCalendar" style="swimlane;fontStyle=0;childLayout=stackLayout;horizontal=1;startSize=26;fillColor=#dae8fc;horizontalStack=0;resizeParent=1;resizeParentMax=0;resizeLast=0;collapsible=1;marginBottom=0;whiteSpace=wrap;html=1;strokeColor=#6c8ebf;" vertex="1" parent="1">
          <mxGeometry x="750" y="509.99999999999994" width="140" height="78" as="geometry" />
        </mxCell>
        <mxCell id="1cO4MJASLVhL4EE68Gqv-28" value="time: string" style="text;strokeColor=#b85450;fillColor=#f8cecc;align=left;verticalAlign=top;spacingLeft=4;spacingRight=4;overflow=hidden;rotatable=0;points=[[0,0.5],[1,0.5]];portConstraint=eastwest;whiteSpace=wrap;html=1;" vertex="1" parent="1cO4MJASLVhL4EE68Gqv-27">
          <mxGeometry y="26" width="140" height="26" as="geometry" />
        </mxCell>
        <mxCell id="1cO4MJASLVhL4EE68Gqv-30" value="title: string" style="text;strokeColor=#b85450;fillColor=#f8cecc;align=left;verticalAlign=top;spacingLeft=4;spacingRight=4;overflow=hidden;rotatable=0;points=[[0,0.5],[1,0.5]];portConstraint=eastwest;whiteSpace=wrap;html=1;" vertex="1" parent="1cO4MJASLVhL4EE68Gqv-27">
          <mxGeometry y="52" width="140" height="26" as="geometry" />
        </mxCell>
        <mxCell id="1cO4MJASLVhL4EE68Gqv-35" value="" style="endArrow=none;endFill=1;endSize=12;html=1;rounded=0;" edge="1" parent="1" source="1cO4MJASLVhL4EE68Gqv-21" target="1cO4MJASLVhL4EE68Gqv-27">
          <mxGeometry width="160" relative="1" as="geometry">
            <mxPoint x="760" y="471.58" as="sourcePoint" />
            <mxPoint x="920" y="471.58" as="targetPoint" />
          </mxGeometry>
        </mxCell>
        <mxCell id="1cO4MJASLVhL4EE68Gqv-56" value="1" style="edgeLabel;html=1;align=center;verticalAlign=middle;resizable=0;points=[];" vertex="1" connectable="0" parent="1cO4MJASLVhL4EE68Gqv-35">
          <mxGeometry x="-0.7171" y="2" relative="1" as="geometry">
            <mxPoint x="-7" y="397" as="offset" />
          </mxGeometry>
        </mxCell>
        <mxCell id="1cO4MJASLVhL4EE68Gqv-55" value="0..*" style="edgeLabel;html=1;align=center;verticalAlign=middle;resizable=0;points=[];" vertex="1" connectable="0" parent="1cO4MJASLVhL4EE68Gqv-35">
          <mxGeometry x="0.54" relative="1" as="geometry">
            <mxPoint x="8" y="-15" as="offset" />
          </mxGeometry>
        </mxCell>
        <mxCell id="1cO4MJASLVhL4EE68Gqv-46" value="Camp" style="swimlane;fontStyle=0;childLayout=stackLayout;horizontal=1;startSize=26;fillColor=#dae8fc;horizontalStack=0;resizeParent=1;resizeParentMax=0;resizeLast=0;collapsible=1;marginBottom=0;whiteSpace=wrap;html=1;strokeColor=#6c8ebf;" vertex="1" parent="1">
          <mxGeometry x="245" y="164" width="140" height="156" as="geometry" />
        </mxCell>
        <mxCell id="1cO4MJASLVhL4EE68Gqv-47" value="title : string" style="text;strokeColor=#b85450;fillColor=#f8cecc;align=left;verticalAlign=top;spacingLeft=4;spacingRight=4;overflow=hidden;rotatable=0;points=[[0,0.5],[1,0.5]];portConstraint=eastwest;whiteSpace=wrap;html=1;" vertex="1" parent="1cO4MJASLVhL4EE68Gqv-46">
          <mxGeometry y="26" width="140" height="26" as="geometry" />
        </mxCell>
        <mxCell id="1cO4MJASLVhL4EE68Gqv-48" value="time: string" style="text;strokeColor=#b85450;fillColor=#f8cecc;align=left;verticalAlign=top;spacingLeft=4;spacingRight=4;overflow=hidden;rotatable=0;points=[[0,0.5],[1,0.5]];portConstraint=eastwest;whiteSpace=wrap;html=1;" vertex="1" parent="1cO4MJASLVhL4EE68Gqv-46">
          <mxGeometry y="52" width="140" height="26" as="geometry" />
        </mxCell>
        <mxCell id="1cO4MJASLVhL4EE68Gqv-50" value="userOwner: id" style="text;strokeColor=#b85450;fillColor=#f8cecc;align=left;verticalAlign=top;spacingLeft=4;spacingRight=4;overflow=hidden;rotatable=0;points=[[0,0.5],[1,0.5]];portConstraint=eastwest;whiteSpace=wrap;html=1;" vertex="1" parent="1cO4MJASLVhL4EE68Gqv-46">
          <mxGeometry y="78" width="140" height="26" as="geometry" />
        </mxCell>
        <mxCell id="1cO4MJASLVhL4EE68Gqv-51" value="comment: string" style="text;align=left;verticalAlign=top;spacingLeft=4;spacingRight=4;overflow=hidden;rotatable=0;points=[[0,0.5],[1,0.5]];portConstraint=eastwest;whiteSpace=wrap;html=1;" vertex="1" parent="1cO4MJASLVhL4EE68Gqv-46">
          <mxGeometry y="104" width="140" height="26" as="geometry" />
        </mxCell>
        <mxCell id="1cO4MJASLVhL4EE68Gqv-141" value="userComment: id" style="text;align=left;verticalAlign=top;spacingLeft=4;spacingRight=4;overflow=hidden;rotatable=0;points=[[0,0.5],[1,0.5]];portConstraint=eastwest;whiteSpace=wrap;html=1;" vertex="1" parent="1cO4MJASLVhL4EE68Gqv-46">
          <mxGeometry y="130" width="140" height="26" as="geometry" />
        </mxCell>
        <mxCell id="1cO4MJASLVhL4EE68Gqv-52" value="" style="endArrow=none;endFill=1;endSize=12;html=1;rounded=0;" edge="1" parent="1" source="1cO4MJASLVhL4EE68Gqv-2" target="1cO4MJASLVhL4EE68Gqv-46">
          <mxGeometry width="160" relative="1" as="geometry">
            <mxPoint x="515" y="445.94" as="sourcePoint" />
            <mxPoint x="675" y="445.94" as="targetPoint" />
          </mxGeometry>
        </mxCell>
        <mxCell id="1cO4MJASLVhL4EE68Gqv-53" value="1" style="edgeLabel;html=1;align=center;verticalAlign=middle;resizable=0;points=[];" vertex="1" connectable="0" parent="1cO4MJASLVhL4EE68Gqv-52">
          <mxGeometry x="-0.7275" y="1" relative="1" as="geometry">
            <mxPoint x="6" y="-7" as="offset" />
          </mxGeometry>
        </mxCell>
        <mxCell id="1cO4MJASLVhL4EE68Gqv-54" value="0..*" style="edgeLabel;html=1;align=center;verticalAlign=middle;resizable=0;points=[];" vertex="1" connectable="0" parent="1cO4MJASLVhL4EE68Gqv-52">
          <mxGeometry x="0.5558" y="-1" relative="1" as="geometry">
            <mxPoint x="24" as="offset" />
          </mxGeometry>
        </mxCell>
        <mxCell id="1cO4MJASLVhL4EE68Gqv-57" value="" style="endArrow=none;endFill=1;endSize=12;html=1;rounded=0;" edge="1" parent="1" source="1cO4MJASLVhL4EE68Gqv-46" target="1cO4MJASLVhL4EE68Gqv-21">
          <mxGeometry width="160" relative="1" as="geometry">
            <mxPoint x="245" y="485.94" as="sourcePoint" />
            <mxPoint x="405" y="485.94" as="targetPoint" />
          </mxGeometry>
        </mxCell>
        <mxCell id="1cO4MJASLVhL4EE68Gqv-58" value="1" style="edgeLabel;html=1;align=center;verticalAlign=middle;resizable=0;points=[];" vertex="1" connectable="0" parent="1cO4MJASLVhL4EE68Gqv-57">
          <mxGeometry x="0.8441" y="-3" relative="1" as="geometry">
            <mxPoint as="offset" />
          </mxGeometry>
        </mxCell>
        <mxCell id="1cO4MJASLVhL4EE68Gqv-59" value="0..*" style="edgeLabel;html=1;align=center;verticalAlign=middle;resizable=0;points=[];" vertex="1" connectable="0" parent="1cO4MJASLVhL4EE68Gqv-57">
          <mxGeometry x="-0.6959" y="3" relative="1" as="geometry">
            <mxPoint as="offset" />
          </mxGeometry>
        </mxCell>
        <mxCell id="1cO4MJASLVhL4EE68Gqv-60" value="Activity" style="swimlane;fontStyle=0;childLayout=stackLayout;horizontal=1;startSize=26;fillColor=#dae8fc;horizontalStack=0;resizeParent=1;resizeParentMax=0;resizeLast=0;collapsible=1;marginBottom=0;whiteSpace=wrap;html=1;strokeColor=#6c8ebf;" vertex="1" parent="1">
          <mxGeometry x="245" y="335.94" width="140" height="156" as="geometry" />
        </mxCell>
        <mxCell id="1cO4MJASLVhL4EE68Gqv-61" value="title : string&lt;span style=&quot;white-space: pre;&quot;&gt;&#x9;&lt;/span&gt;" style="text;strokeColor=#b85450;fillColor=#f8cecc;align=left;verticalAlign=top;spacingLeft=4;spacingRight=4;overflow=hidden;rotatable=0;points=[[0,0.5],[1,0.5]];portConstraint=eastwest;whiteSpace=wrap;html=1;" vertex="1" parent="1cO4MJASLVhL4EE68Gqv-60">
          <mxGeometry y="26" width="140" height="26" as="geometry" />
        </mxCell>
        <mxCell id="1cO4MJASLVhL4EE68Gqv-62" value="time: string" style="text;strokeColor=#b85450;fillColor=#f8cecc;align=left;verticalAlign=top;spacingLeft=4;spacingRight=4;overflow=hidden;rotatable=0;points=[[0,0.5],[1,0.5]];portConstraint=eastwest;whiteSpace=wrap;html=1;" vertex="1" parent="1cO4MJASLVhL4EE68Gqv-60">
          <mxGeometry y="52" width="140" height="26" as="geometry" />
        </mxCell>
        <mxCell id="1cO4MJASLVhL4EE68Gqv-63" value="userOwner: id" style="text;strokeColor=#b85450;fillColor=#f8cecc;align=left;verticalAlign=top;spacingLeft=4;spacingRight=4;overflow=hidden;rotatable=0;points=[[0,0.5],[1,0.5]];portConstraint=eastwest;whiteSpace=wrap;html=1;" vertex="1" parent="1cO4MJASLVhL4EE68Gqv-60">
          <mxGeometry y="78" width="140" height="26" as="geometry" />
        </mxCell>
        <mxCell id="1cO4MJASLVhL4EE68Gqv-64" value="comment:string" style="text;align=left;verticalAlign=top;spacingLeft=4;spacingRight=4;overflow=hidden;rotatable=0;points=[[0,0.5],[1,0.5]];portConstraint=eastwest;whiteSpace=wrap;html=1;" vertex="1" parent="1cO4MJASLVhL4EE68Gqv-60">
          <mxGeometry y="104" width="140" height="26" as="geometry" />
        </mxCell>
        <mxCell id="1cO4MJASLVhL4EE68Gqv-139" value="userComment: id" style="text;align=left;verticalAlign=top;spacingLeft=4;spacingRight=4;overflow=hidden;rotatable=0;points=[[0,0.5],[1,0.5]];portConstraint=eastwest;whiteSpace=wrap;html=1;" vertex="1" parent="1cO4MJASLVhL4EE68Gqv-60">
          <mxGeometry y="130" width="140" height="26" as="geometry" />
        </mxCell>
        <mxCell id="1cO4MJASLVhL4EE68Gqv-65" value="" style="endArrow=none;endFill=1;endSize=12;html=1;rounded=0;" edge="1" parent="1" source="1cO4MJASLVhL4EE68Gqv-2" target="1cO4MJASLVhL4EE68Gqv-60">
          <mxGeometry width="160" relative="1" as="geometry">
            <mxPoint x="745" y="595.94" as="sourcePoint" />
            <mxPoint x="905" y="595.94" as="targetPoint" />
          </mxGeometry>
        </mxCell>
        <mxCell id="1cO4MJASLVhL4EE68Gqv-66" value="1" style="edgeLabel;html=1;align=center;verticalAlign=middle;resizable=0;points=[];" vertex="1" connectable="0" parent="1cO4MJASLVhL4EE68Gqv-65">
          <mxGeometry x="-0.6782" y="1" relative="1" as="geometry">
            <mxPoint as="offset" />
          </mxGeometry>
        </mxCell>
        <mxCell id="1cO4MJASLVhL4EE68Gqv-68" value="0..*" style="edgeLabel;html=1;align=center;verticalAlign=middle;resizable=0;points=[];" vertex="1" connectable="0" parent="1cO4MJASLVhL4EE68Gqv-65">
          <mxGeometry x="0.7937" y="-3" relative="1" as="geometry">
            <mxPoint as="offset" />
          </mxGeometry>
        </mxCell>
        <mxCell id="1cO4MJASLVhL4EE68Gqv-69" value="" style="endArrow=none;endFill=1;endSize=12;html=1;rounded=0;" edge="1" parent="1" source="1cO4MJASLVhL4EE68Gqv-21" target="1cO4MJASLVhL4EE68Gqv-60">
          <mxGeometry width="160" relative="1" as="geometry">
            <mxPoint x="745" y="595.94" as="sourcePoint" />
            <mxPoint x="905" y="595.94" as="targetPoint" />
          </mxGeometry>
        </mxCell>
        <mxCell id="1cO4MJASLVhL4EE68Gqv-70" value="0..*" style="edgeLabel;html=1;align=center;verticalAlign=middle;resizable=0;points=[];" vertex="1" connectable="0" parent="1cO4MJASLVhL4EE68Gqv-69">
          <mxGeometry x="0.723" y="-3" relative="1" as="geometry">
            <mxPoint as="offset" />
          </mxGeometry>
        </mxCell>
        <mxCell id="1cO4MJASLVhL4EE68Gqv-71" value="1" style="edgeLabel;html=1;align=center;verticalAlign=middle;resizable=0;points=[];" vertex="1" connectable="0" parent="1cO4MJASLVhL4EE68Gqv-69">
          <mxGeometry x="-0.7534" y="1" relative="1" as="geometry">
            <mxPoint as="offset" />
          </mxGeometry>
        </mxCell>
        <mxCell id="1cO4MJASLVhL4EE68Gqv-72" value="Announcement&amp;nbsp;" style="swimlane;fontStyle=0;childLayout=stackLayout;horizontal=1;startSize=26;fillColor=#dae8fc;horizontalStack=0;resizeParent=1;resizeParentMax=0;resizeLast=0;collapsible=1;marginBottom=0;whiteSpace=wrap;html=1;strokeColor=#6c8ebf;" vertex="1" parent="1">
          <mxGeometry x="245" y="510" width="140" height="156" as="geometry" />
        </mxCell>
        <mxCell id="1cO4MJASLVhL4EE68Gqv-73" value="title : string&lt;span style=&quot;white-space: pre;&quot;&gt;&#x9;&lt;/span&gt;" style="text;strokeColor=#b85450;fillColor=#f8cecc;align=left;verticalAlign=top;spacingLeft=4;spacingRight=4;overflow=hidden;rotatable=0;points=[[0,0.5],[1,0.5]];portConstraint=eastwest;whiteSpace=wrap;html=1;" vertex="1" parent="1cO4MJASLVhL4EE68Gqv-72">
          <mxGeometry y="26" width="140" height="26" as="geometry" />
        </mxCell>
        <mxCell id="1cO4MJASLVhL4EE68Gqv-74" value="time: string" style="text;strokeColor=#b85450;fillColor=#f8cecc;align=left;verticalAlign=top;spacingLeft=4;spacingRight=4;overflow=hidden;rotatable=0;points=[[0,0.5],[1,0.5]];portConstraint=eastwest;whiteSpace=wrap;html=1;" vertex="1" parent="1cO4MJASLVhL4EE68Gqv-72">
          <mxGeometry y="52" width="140" height="26" as="geometry" />
        </mxCell>
        <mxCell id="1cO4MJASLVhL4EE68Gqv-75" value="userOwner: id" style="text;strokeColor=#b85450;fillColor=#f8cecc;align=left;verticalAlign=top;spacingLeft=4;spacingRight=4;overflow=hidden;rotatable=0;points=[[0,0.5],[1,0.5]];portConstraint=eastwest;whiteSpace=wrap;html=1;" vertex="1" parent="1cO4MJASLVhL4EE68Gqv-72">
          <mxGeometry y="78" width="140" height="26" as="geometry" />
        </mxCell>
        <mxCell id="1cO4MJASLVhL4EE68Gqv-76" value="comment:string" style="text;align=left;verticalAlign=top;spacingLeft=4;spacingRight=4;overflow=hidden;rotatable=0;points=[[0,0.5],[1,0.5]];portConstraint=eastwest;whiteSpace=wrap;html=1;" vertex="1" parent="1cO4MJASLVhL4EE68Gqv-72">
          <mxGeometry y="104" width="140" height="26" as="geometry" />
        </mxCell>
        <mxCell id="1cO4MJASLVhL4EE68Gqv-140" value="userComment: id" style="text;align=left;verticalAlign=top;spacingLeft=4;spacingRight=4;overflow=hidden;rotatable=0;points=[[0,0.5],[1,0.5]];portConstraint=eastwest;whiteSpace=wrap;html=1;" vertex="1" parent="1cO4MJASLVhL4EE68Gqv-72">
          <mxGeometry y="130" width="140" height="26" as="geometry" />
        </mxCell>
        <mxCell id="1cO4MJASLVhL4EE68Gqv-81" value="" style="endArrow=none;endFill=1;endSize=12;html=1;rounded=0;" edge="1" parent="1" source="1cO4MJASLVhL4EE68Gqv-21" target="1cO4MJASLVhL4EE68Gqv-72">
          <mxGeometry width="160" relative="1" as="geometry">
            <mxPoint x="585" y="555.94" as="sourcePoint" />
            <mxPoint x="835" y="565.94" as="targetPoint" />
          </mxGeometry>
        </mxCell>
        <mxCell id="1cO4MJASLVhL4EE68Gqv-82" value="1" style="edgeLabel;html=1;align=center;verticalAlign=middle;resizable=0;points=[];" vertex="1" connectable="0" parent="1cO4MJASLVhL4EE68Gqv-81">
          <mxGeometry x="-0.5374" y="1" relative="1" as="geometry">
            <mxPoint as="offset" />
          </mxGeometry>
        </mxCell>
        <mxCell id="1cO4MJASLVhL4EE68Gqv-83" value="0..*" style="edgeLabel;html=1;align=center;verticalAlign=middle;resizable=0;points=[];" vertex="1" connectable="0" parent="1cO4MJASLVhL4EE68Gqv-81">
          <mxGeometry x="0.6428" y="1" relative="1" as="geometry">
            <mxPoint y="1" as="offset" />
          </mxGeometry>
        </mxCell>
        <mxCell id="1cO4MJASLVhL4EE68Gqv-98" value="Status" style="swimlane;fontStyle=0;childLayout=stackLayout;horizontal=1;startSize=26;fillColor=#dae8fc;horizontalStack=0;resizeParent=1;resizeParentMax=0;resizeLast=0;collapsible=1;marginBottom=0;whiteSpace=wrap;html=1;strokeColor=#6c8ebf;" vertex="1" parent="1">
          <mxGeometry x="765" y="263.94" width="140" height="78" as="geometry" />
        </mxCell>
        <mxCell id="1cO4MJASLVhL4EE68Gqv-99" value="status:string" style="text;strokeColor=none;fillColor=none;align=left;verticalAlign=top;spacingLeft=4;spacingRight=4;overflow=hidden;rotatable=0;points=[[0,0.5],[1,0.5]];portConstraint=eastwest;whiteSpace=wrap;html=1;" vertex="1" parent="1cO4MJASLVhL4EE68Gqv-98">
          <mxGeometry y="26" width="140" height="26" as="geometry" />
        </mxCell>
        <mxCell id="1cO4MJASLVhL4EE68Gqv-100" value="user:string" style="text;strokeColor=none;fillColor=none;align=left;verticalAlign=top;spacingLeft=4;spacingRight=4;overflow=hidden;rotatable=0;points=[[0,0.5],[1,0.5]];portConstraint=eastwest;whiteSpace=wrap;html=1;" vertex="1" parent="1cO4MJASLVhL4EE68Gqv-98">
          <mxGeometry y="52" width="140" height="26" as="geometry" />
        </mxCell>
        <mxCell id="1cO4MJASLVhL4EE68Gqv-102" value="" style="endArrow=none&#xa;;endFill=1;endSize=12;html=1;rounded=0;" edge="1" parent="1" source="1cO4MJASLVhL4EE68Gqv-124" target="1cO4MJASLVhL4EE68Gqv-98">
          <mxGeometry width="160" relative="1" as="geometry">
            <mxPoint x="835" y="164" as="sourcePoint" />
            <mxPoint x="915" y="154" as="targetPoint" />
          </mxGeometry>
        </mxCell>
        <mxCell id="1cO4MJASLVhL4EE68Gqv-103" value="1" style="edgeLabel;html=1;align=center;verticalAlign=middle;resizable=0;points=[];" vertex="1" connectable="0" parent="1cO4MJASLVhL4EE68Gqv-102">
          <mxGeometry x="-0.5676" y="-1" relative="1" as="geometry">
            <mxPoint x="10" as="offset" />
          </mxGeometry>
        </mxCell>
        <mxCell id="1cO4MJASLVhL4EE68Gqv-104" value="0..*" style="edgeLabel;html=1;align=center;verticalAlign=middle;resizable=0;points=[];" vertex="1" connectable="0" parent="1cO4MJASLVhL4EE68Gqv-102">
          <mxGeometry x="0.4432" y="2" relative="1" as="geometry">
            <mxPoint x="13" y="1" as="offset" />
          </mxGeometry>
        </mxCell>
        <mxCell id="1cO4MJASLVhL4EE68Gqv-105" value="" style="endArrow=none&#xa;;endFill=1;endSize=12;html=1;rounded=0;" edge="1" parent="1" source="1cO4MJASLVhL4EE68Gqv-2">
          <mxGeometry width="160" relative="1" as="geometry">
            <mxPoint x="675" y="312.00000000000006" as="sourcePoint" />
            <mxPoint x="765" y="312.00000000000006" as="targetPoint" />
          </mxGeometry>
        </mxCell>
        <mxCell id="1cO4MJASLVhL4EE68Gqv-106" value="1" style="edgeLabel;html=1;align=center;verticalAlign=middle;resizable=0;points=[];" vertex="1" connectable="0" parent="1cO4MJASLVhL4EE68Gqv-105">
          <mxGeometry x="-0.5676" y="-1" relative="1" as="geometry">
            <mxPoint x="-4" y="9" as="offset" />
          </mxGeometry>
        </mxCell>
        <mxCell id="1cO4MJASLVhL4EE68Gqv-107" value="1" style="edgeLabel;html=1;align=center;verticalAlign=middle;resizable=0;points=[];" vertex="1" connectable="0" parent="1cO4MJASLVhL4EE68Gqv-105">
          <mxGeometry x="0.4432" y="2" relative="1" as="geometry">
            <mxPoint x="10" y="12" as="offset" />
          </mxGeometry>
        </mxCell>
        <mxCell id="1cO4MJASLVhL4EE68Gqv-108" value="" style="endArrow=none&#xa;;endFill=1;endSize=12;html=1;rounded=0;" edge="1" parent="1" source="1cO4MJASLVhL4EE68Gqv-21" target="1cO4MJASLVhL4EE68Gqv-98">
          <mxGeometry width="160" relative="1" as="geometry">
            <mxPoint x="675" y="240.00000000000006" as="sourcePoint" />
            <mxPoint x="765" y="240.00000000000006" as="targetPoint" />
          </mxGeometry>
        </mxCell>
        <mxCell id="1cO4MJASLVhL4EE68Gqv-109" value="1" style="edgeLabel;html=1;align=center;verticalAlign=middle;resizable=0;points=[];" vertex="1" connectable="0" parent="1cO4MJASLVhL4EE68Gqv-108">
          <mxGeometry x="-0.5676" y="-1" relative="1" as="geometry">
            <mxPoint x="-4" y="9" as="offset" />
          </mxGeometry>
        </mxCell>
        <mxCell id="1cO4MJASLVhL4EE68Gqv-110" value="1" style="edgeLabel;html=1;align=center;verticalAlign=middle;resizable=0;points=[];" vertex="1" connectable="0" parent="1cO4MJASLVhL4EE68Gqv-108">
          <mxGeometry x="0.4432" y="2" relative="1" as="geometry">
            <mxPoint x="10" y="12" as="offset" />
          </mxGeometry>
        </mxCell>
        <mxCell id="1cO4MJASLVhL4EE68Gqv-113" value="&lt;b&gt;ModuleAuthentication (Admin, Status, User||UserAdmin)&lt;br&gt;ModuleActivity(User||UserAdmin, Camp, Activity, Announcement, Comment)&lt;br&gt;ModuleCalendar (UserAdmin, TotalCalendar)&lt;/b&gt;" style="rounded=0;whiteSpace=wrap;html=1;align=left;labelBackgroundColor=#dae8fc;fillColor=#dae8fc;strokeColor=#6c8ebf;" vertex="1" parent="1">
          <mxGeometry x="280" y="10" width="460" height="60" as="geometry" />
        </mxCell>
        <mxCell id="1cO4MJASLVhL4EE68Gqv-124" value="Admin" style="swimlane;fontStyle=0;childLayout=stackLayout;horizontal=1;startSize=26;fillColor=#60a917;horizontalStack=0;resizeParent=1;resizeParentMax=0;resizeLast=0;collapsible=1;marginBottom=0;whiteSpace=wrap;html=1;strokeColor=#2D7600;fontColor=#ffffff;" vertex="1" parent="1">
          <mxGeometry x="765" y="112" width="140" height="104" as="geometry" />
        </mxCell>
        <mxCell id="1cO4MJASLVhL4EE68Gqv-125" value="email:string" style="text;strokeColor=none;fillColor=none;align=left;verticalAlign=top;spacingLeft=4;spacingRight=4;overflow=hidden;rotatable=0;points=[[0,0.5],[1,0.5]];portConstraint=eastwest;whiteSpace=wrap;html=1;" vertex="1" parent="1cO4MJASLVhL4EE68Gqv-124">
          <mxGeometry y="26" width="140" height="26" as="geometry" />
        </mxCell>
        <mxCell id="1cO4MJASLVhL4EE68Gqv-126" value="password:string" style="text;strokeColor=none;fillColor=none;align=left;verticalAlign=top;spacingLeft=4;spacingRight=4;overflow=hidden;rotatable=0;points=[[0,0.5],[1,0.5]];portConstraint=eastwest;whiteSpace=wrap;html=1;" vertex="1" parent="1cO4MJASLVhL4EE68Gqv-124">
          <mxGeometry y="52" width="140" height="26" as="geometry" />
        </mxCell>
        <mxCell id="1cO4MJASLVhL4EE68Gqv-128" value="name:string" style="text;strokeColor=none;fillColor=none;align=left;verticalAlign=top;spacingLeft=4;spacingRight=4;overflow=hidden;rotatable=0;points=[[0,0.5],[1,0.5]];portConstraint=eastwest;whiteSpace=wrap;html=1;" vertex="1" parent="1cO4MJASLVhL4EE68Gqv-124">
          <mxGeometry y="78" width="140" height="26" as="geometry" />
        </mxCell>
        <mxCell id="1cO4MJASLVhL4EE68Gqv-134" value="&lt;font style=&quot;font-size: 25px;&quot;&gt;Activity Module&amp;nbsp;&lt;/font&gt;" style="text;html=1;align=center;verticalAlign=middle;whiteSpace=wrap;rounded=0;fontStyle=1;fontColor=#6600CC;" vertex="1" parent="1">
          <mxGeometry y="370" width="250" height="30" as="geometry" />
        </mxCell>
        <mxCell id="1cO4MJASLVhL4EE68Gqv-135" value="&lt;font style=&quot;font-size: 25px;&quot;&gt;Authentication Module&lt;/font&gt;" style="text;html=1;align=center;verticalAlign=middle;whiteSpace=wrap;rounded=0;fontStyle=1;fontColor=#6600CC;" vertex="1" parent="1">
          <mxGeometry x="530" y="134" width="190" height="30" as="geometry" />
        </mxCell>
        <mxCell id="1cO4MJASLVhL4EE68Gqv-136" value="&lt;font style=&quot;font-size: 25px;&quot;&gt;Calendar Module&lt;/font&gt;" style="text;html=1;align=center;verticalAlign=middle;whiteSpace=wrap;rounded=0;fontStyle=1;fontColor=#6600CC;" vertex="1" parent="1">
          <mxGeometry x="660" y="439.94" width="220" height="30" as="geometry" />
        </mxCell>
      </root>
    </mxGraphModel>
  </diagram>
</mxfile>
